<svg width="45" height="45" viewBox="0 0 45 45" fill="none" xmlns="http://www.w3.org/2000/svg">
<circle cx="22.5" cy="22.5" r="22" stroke="black"/>
<path d="M20.7148 30.1875C20.7409 28.7292 20.9622 27.5378 21.3789 26.6133C21.8086 25.6758 22.6094 24.6602 23.7812 23.5664C24.9531 22.4727 25.7734 21.5938 26.2422 20.9297C26.7109 20.2656 27.0495 19.5755 27.2578 18.8594C27.4792 18.1432 27.5898 17.2839 27.5898 16.2812C27.5898 14.3932 27.0885 12.9089 26.0859 11.8281C25.0833 10.7474 23.7031 10.207 21.9453 10.207C20.0703 10.207 18.5924 10.7669 17.5117 11.8867C16.444 13.0065 15.8971 14.4453 15.8711 16.2031H14.8164C14.8424 14.0938 15.526 12.3945 16.8672 11.1055C18.2083 9.81641 19.901 9.17188 21.9453 9.17188C23.9896 9.17188 25.6172 9.81641 26.8281 11.1055C28.0391 12.3945 28.6445 14.1328 28.6445 16.3203C28.6445 17.8177 28.3516 19.1523 27.7656 20.3242C27.1797 21.4831 26.0404 22.8307 24.3477 24.3672C22.6289 25.7083 21.7695 27.6484 21.7695 30.1875H20.7148ZM20.2461 37.043C20.2461 36.7435 20.3503 36.4896 20.5586 36.2812C20.7669 36.0599 21.0208 35.9492 21.3203 35.9492C21.6198 35.9492 21.8737 36.0599 22.082 36.2812C22.3034 36.4896 22.4141 36.7435 22.4141 37.043C22.4141 37.3424 22.3034 37.5964 22.082 37.8047C21.8737 38.013 21.6198 38.1172 21.3203 38.1172C21.0208 38.1172 20.7669 38.013 20.5586 37.8047C20.3503 37.5964 20.2461 37.3424 20.2461 37.043Z" fill="black"/>
</svg>
